<svg width="40" height="40" viewBox="0 0 40 40" fill="none" xmlns="http://www.w3.org/2000/svg">
<rect width="40" height="40" rx="20" fill="#25CA4C"/>
<path d="M17.308 33.216C15.7 33.216 14.368 32.94 13.312 32.388C12.28 31.836 11.512 31.128 11.008 30.264C10.504 29.4 10.252 28.512 10.252 27.6C10.252 26.712 10.468 25.872 10.9 25.08C11.332 24.264 11.944 23.592 12.736 23.064C13.552 22.536 14.512 22.272 15.616 22.272C15.592 22.488 15.58 22.692 15.58 22.884C15.58 23.052 15.58 23.136 15.58 23.136C15.58 24.744 15.736 26.016 16.048 26.952C16.36 27.864 16.756 28.524 17.236 28.932C17.716 29.316 18.208 29.508 18.712 29.508C19.48 29.508 20.164 29.208 20.764 28.608C21.364 27.984 21.664 27.264 21.664 26.448C21.664 25.536 21.268 24.732 20.476 24.036C19.708 23.34 18.724 22.572 17.524 21.732C16.852 21.228 16.132 20.664 15.364 20.04C14.62 19.392 13.984 18.636 13.456 17.772C12.928 16.884 12.664 15.84 12.664 14.64C12.664 13.392 12.952 12.288 13.528 11.328C14.128 10.368 14.908 9.564 15.868 8.916C16.852 8.244 17.92 7.74 19.072 7.404C20.248 7.044 21.412 6.864 22.564 6.864C23.98 6.864 25.144 7.092 26.056 7.548C26.968 8.004 27.652 8.592 28.108 9.312C28.564 10.032 28.792 10.776 28.792 11.544C28.792 12.264 28.588 12.96 28.18 13.632C27.796 14.28 27.22 14.808 26.452 15.216C25.684 15.624 24.736 15.828 23.608 15.828C23.68 15.492 23.728 15.192 23.752 14.928C23.776 14.64 23.788 14.388 23.788 14.172C23.788 12.972 23.524 12.12 22.996 11.616C22.492 11.088 21.928 10.824 21.304 10.824C20.704 10.824 20.128 11.052 19.576 11.508C19.024 11.94 18.748 12.648 18.748 13.632C18.748 14.472 18.964 15.192 19.396 15.792C19.852 16.392 20.428 16.92 21.124 17.376C21.844 17.832 22.6 18.276 23.392 18.708C24.208 19.14 24.988 19.62 25.732 20.148C26.5 20.652 27.136 21.252 27.64 21.948C28.144 22.644 28.396 23.52 28.396 24.576C28.396 25.68 28.096 26.76 27.496 27.816C26.896 28.848 26.08 29.772 25.048 30.588C24.016 31.38 22.828 32.016 21.484 32.496C20.164 32.976 18.772 33.216 17.308 33.216Z" fill="white"/>
</svg>
